<?xml version="1.0" encoding="utf-8" standalone="no"?>
<!DOCTYPE svg PUBLIC "-//W3C//DTD SVG 1.1//EN"
  "http://www.w3.org/Graphics/SVG/1.1/DTD/svg11.dtd">
<svg xmlns:xlink="http://www.w3.org/1999/xlink" width="720pt" height="360pt" viewBox="0 0 720 360" xmlns="http://www.w3.org/2000/svg" version="1.1">
 <metadata>
  <rdf:RDF xmlns:dc="http://purl.org/dc/elements/1.1/" xmlns:cc="http://creativecommons.org/ns#" xmlns:rdf="http://www.w3.org/1999/02/22-rdf-syntax-ns#">
   <cc:Work>
    <dc:type rdf:resource="http://purl.org/dc/dcmitype/StillImage"/>
    <dc:date>2025-05-12T10:41:19.128652</dc:date>
    <dc:format>image/svg+xml</dc:format>
    <dc:creator>
     <cc:Agent>
      <dc:title>Matplotlib v3.10.3, https://matplotlib.org/</dc:title>
     </cc:Agent>
    </dc:creator>
   </cc:Work>
  </rdf:RDF>
 </metadata>
 <defs>
  <style type="text/css">*{stroke-linejoin: round; stroke-linecap: butt}</style>
 </defs>
 <g id="figure_1">
  <g id="axes_1">
   <g id="patch_1">
    <path d="M 0 360 
L 72 360 
L 72 288 
L 0 288 
z
" clip-path="url(#pf746fbb74f)" style="fill: #0000ff; stroke: #ffffff; stroke-width: 4; stroke-linejoin: miter"/>
   </g>
   <g id="patch_2">
    <path d="M 72 360 
L 144 360 
L 144 288 
L 72 288 
z
" clip-path="url(#pf746fbb74f)" style="fill: #0000ff; stroke: #ffffff; stroke-width: 4; stroke-linejoin: miter"/>
   </g>
   <g id="patch_3">
    <path d="M 144 360 
L 216 360 
L 216 288 
L 144 288 
z
" clip-path="url(#pf746fbb74f)" style="fill: #0000ff; stroke: #ffffff; stroke-width: 4; stroke-linejoin: miter"/>
   </g>
   <g id="patch_4">
    <path d="M 216 360 
L 288 360 
L 288 288 
L 216 288 
z
" clip-path="url(#pf746fbb74f)" style="fill: #0000ff; stroke: #ffffff; stroke-width: 4; stroke-linejoin: miter"/>
   </g>
   <g id="patch_5">
    <path d="M 288 360 
L 360 360 
L 360 288 
L 288 288 
z
" clip-path="url(#pf746fbb74f)" style="fill: #0000ff; stroke: #ffffff; stroke-width: 4; stroke-linejoin: miter"/>
   </g>
   <g id="patch_6">
    <path d="M 360 360 
L 432 360 
L 432 288 
L 360 288 
z
" clip-path="url(#pf746fbb74f)" style="fill: #0000ff; stroke: #ffffff; stroke-width: 4; stroke-linejoin: miter"/>
   </g>
   <g id="patch_7">
    <path d="M 432 360 
L 504 360 
L 504 288 
L 432 288 
z
" clip-path="url(#pf746fbb74f)" style="fill: #0000ff; stroke: #ffffff; stroke-width: 4; stroke-linejoin: miter"/>
   </g>
   <g id="patch_8">
    <path d="M 504 360 
L 576 360 
L 576 288 
L 504 288 
z
" clip-path="url(#pf746fbb74f)" style="fill: #0000ff; stroke: #ffffff; stroke-width: 4; stroke-linejoin: miter"/>
   </g>
   <g id="patch_9">
    <path d="M 576 360 
L 648 360 
L 648 288 
L 576 288 
z
" clip-path="url(#pf746fbb74f)" style="fill: #0000ff; stroke: #ffffff; stroke-width: 4; stroke-linejoin: miter"/>
   </g>
   <g id="patch_10">
    <path d="M 648 360 
L 720 360 
L 720 288 
L 648 288 
z
" clip-path="url(#pf746fbb74f)" style="fill: #0000ff; stroke: #ffffff; stroke-width: 4; stroke-linejoin: miter"/>
   </g>
   <g id="patch_11">
    <path d="M 0 288 
L 72 288 
L 72 216 
L 0 216 
z
" clip-path="url(#pf746fbb74f)" style="fill: #0000ff; stroke: #ffffff; stroke-width: 4; stroke-linejoin: miter"/>
   </g>
   <g id="patch_12">
    <path d="M 72 288 
L 144 288 
L 144 216 
L 72 216 
z
" clip-path="url(#pf746fbb74f)" style="fill: #0000ff; stroke: #ffffff; stroke-width: 4; stroke-linejoin: miter"/>
   </g>
   <g id="patch_13">
    <path d="M 144 288 
L 216 288 
L 216 216 
L 144 216 
z
" clip-path="url(#pf746fbb74f)" style="fill: #0000ff; stroke: #ffffff; stroke-width: 4; stroke-linejoin: miter"/>
   </g>
   <g id="patch_14">
    <path d="M 216 288 
L 288 288 
L 288 216 
L 216 216 
z
" clip-path="url(#pf746fbb74f)" style="fill: #0000ff; stroke: #ffffff; stroke-width: 4; stroke-linejoin: miter"/>
   </g>
   <g id="patch_15">
    <path d="M 288 288 
L 360 288 
L 360 216 
L 288 216 
z
" clip-path="url(#pf746fbb74f)" style="fill: #0000ff; stroke: #ffffff; stroke-width: 4; stroke-linejoin: miter"/>
   </g>
   <g id="patch_16">
    <path d="M 360 288 
L 432 288 
L 432 216 
L 360 216 
z
" clip-path="url(#pf746fbb74f)" style="fill: #0000ff; stroke: #ffffff; stroke-width: 4; stroke-linejoin: miter"/>
   </g>
   <g id="patch_17">
    <path d="M 432 288 
L 504 288 
L 504 216 
L 432 216 
z
" clip-path="url(#pf746fbb74f)" style="fill: #0000ff; stroke: #ffffff; stroke-width: 4; stroke-linejoin: miter"/>
   </g>
   <g id="patch_18">
    <path d="M 504 288 
L 576 288 
L 576 216 
L 504 216 
z
" clip-path="url(#pf746fbb74f)" style="fill: #0000ff; stroke: #ffffff; stroke-width: 4; stroke-linejoin: miter"/>
   </g>
   <g id="patch_19">
    <path d="M 576 288 
L 648 288 
L 648 216 
L 576 216 
z
" clip-path="url(#pf746fbb74f)" style="fill: #0000ff; stroke: #ffffff; stroke-width: 4; stroke-linejoin: miter"/>
   </g>
   <g id="patch_20">
    <path d="M 648 288 
L 720 288 
L 720 216 
L 648 216 
z
" clip-path="url(#pf746fbb74f)" style="fill: #0000ff; stroke: #ffffff; stroke-width: 4; stroke-linejoin: miter"/>
   </g>
   <g id="patch_21">
    <path d="M 0 216 
L 72 216 
L 72 144 
L 0 144 
z
" clip-path="url(#pf746fbb74f)" style="fill: #0000ff; stroke: #ffffff; stroke-width: 4; stroke-linejoin: miter"/>
   </g>
   <g id="patch_22">
    <path d="M 72 216 
L 144 216 
L 144 144 
L 72 144 
z
" clip-path="url(#pf746fbb74f)" style="fill: #0000ff; stroke: #ffffff; stroke-width: 4; stroke-linejoin: miter"/>
   </g>
   <g id="patch_23">
    <path d="M 144 216 
L 216 216 
L 216 144 
L 144 144 
z
" clip-path="url(#pf746fbb74f)" style="fill: #0000ff; stroke: #ffffff; stroke-width: 4; stroke-linejoin: miter"/>
   </g>
   <g id="patch_24">
    <path d="M 216 216 
L 288 216 
L 288 144 
L 216 144 
z
" clip-path="url(#pf746fbb74f)" style="fill: #0000ff; stroke: #ffffff; stroke-width: 4; stroke-linejoin: miter"/>
   </g>
   <g id="patch_25">
    <path d="M 288 216 
L 360 216 
L 360 144 
L 288 144 
z
" clip-path="url(#pf746fbb74f)" style="fill: #0000ff; stroke: #ffffff; stroke-width: 4; stroke-linejoin: miter"/>
   </g>
   <g id="patch_26">
    <path d="M 360 216 
L 432 216 
L 432 144 
L 360 144 
z
" clip-path="url(#pf746fbb74f)" style="fill: #0000ff; stroke: #ffffff; stroke-width: 4; stroke-linejoin: miter"/>
   </g>
   <g id="patch_27">
    <path d="M 432 216 
L 504 216 
L 504 144 
L 432 144 
z
" clip-path="url(#pf746fbb74f)" style="fill: #0000ff; stroke: #ffffff; stroke-width: 4; stroke-linejoin: miter"/>
   </g>
   <g id="patch_28">
    <path d="M 504 216 
L 576 216 
L 576 144 
L 504 144 
z
" clip-path="url(#pf746fbb74f)" style="fill: #0000ff; stroke: #ffffff; stroke-width: 4; stroke-linejoin: miter"/>
   </g>
   <g id="patch_29">
    <path d="M 576 216 
L 648 216 
L 648 144 
L 576 144 
z
" clip-path="url(#pf746fbb74f)" style="fill: #0000ff; stroke: #ffffff; stroke-width: 4; stroke-linejoin: miter"/>
   </g>
   <g id="patch_30">
    <path d="M 648 216 
L 720 216 
L 720 144 
L 648 144 
z
" clip-path="url(#pf746fbb74f)" style="fill: #0000ff; stroke: #ffffff; stroke-width: 4; stroke-linejoin: miter"/>
   </g>
   <g id="patch_31">
    <path d="M 0 144 
L 72 144 
L 72 72 
L 0 72 
z
" clip-path="url(#pf746fbb74f)" style="fill: #0000ff; stroke: #ffffff; stroke-width: 4; stroke-linejoin: miter"/>
   </g>
   <g id="patch_32">
    <path d="M 72 144 
L 144 144 
L 144 72 
L 72 72 
z
" clip-path="url(#pf746fbb74f)" style="fill: #0000ff; stroke: #ffffff; stroke-width: 4; stroke-linejoin: miter"/>
   </g>
   <g id="patch_33">
    <path d="M 144 144 
L 216 144 
L 216 72 
L 144 72 
z
" clip-path="url(#pf746fbb74f)" style="fill: #0000ff; stroke: #ffffff; stroke-width: 4; stroke-linejoin: miter"/>
   </g>
   <g id="patch_34">
    <path d="M 216 144 
L 288 144 
L 288 72 
L 216 72 
z
" clip-path="url(#pf746fbb74f)" style="fill: #0000ff; stroke: #ffffff; stroke-width: 4; stroke-linejoin: miter"/>
   </g>
   <g id="patch_35">
    <path d="M 288 144 
L 360 144 
L 360 72 
L 288 72 
z
" clip-path="url(#pf746fbb74f)" style="fill: #0000ff; stroke: #ffffff; stroke-width: 4; stroke-linejoin: miter"/>
   </g>
   <g id="patch_36">
    <path d="M 360 144 
L 432 144 
L 432 72 
L 360 72 
z
" clip-path="url(#pf746fbb74f)" style="fill: #0000ff; stroke: #ffffff; stroke-width: 4; stroke-linejoin: miter"/>
   </g>
   <g id="patch_37">
    <path d="M 432 144 
L 504 144 
L 504 72 
L 432 72 
z
" clip-path="url(#pf746fbb74f)" style="fill: #0000ff; stroke: #ffffff; stroke-width: 4; stroke-linejoin: miter"/>
   </g>
   <g id="patch_38">
    <path d="M 504 144 
L 576 144 
L 576 72 
L 504 72 
z
" clip-path="url(#pf746fbb74f)" style="fill: #0000ff; stroke: #ffffff; stroke-width: 4; stroke-linejoin: miter"/>
   </g>
   <g id="patch_39">
    <path d="M 576 144 
L 648 144 
L 648 72 
L 576 72 
z
" clip-path="url(#pf746fbb74f)" style="fill: #0000ff; stroke: #ffffff; stroke-width: 4; stroke-linejoin: miter"/>
   </g>
   <g id="patch_40">
    <path d="M 648 144 
L 720 144 
L 720 72 
L 648 72 
z
" clip-path="url(#pf746fbb74f)" style="fill: #0000ff; stroke: #ffffff; stroke-width: 4; stroke-linejoin: miter"/>
   </g>
   <g id="patch_41">
    <path d="M 0 72 
L 72 72 
L 72 0 
L 0 0 
z
" clip-path="url(#pf746fbb74f)" style="fill: #0000ff; stroke: #ffffff; stroke-width: 4; stroke-linejoin: miter"/>
   </g>
   <g id="patch_42">
    <path d="M 72 72 
L 144 72 
L 144 0 
L 72 0 
z
" clip-path="url(#pf746fbb74f)" style="fill: #0000ff; stroke: #ffffff; stroke-width: 4; stroke-linejoin: miter"/>
   </g>
   <g id="patch_43">
    <path d="M 144 72 
L 216 72 
L 216 0 
L 144 0 
z
" clip-path="url(#pf746fbb74f)" style="fill: #0000ff; stroke: #ffffff; stroke-width: 4; stroke-linejoin: miter"/>
   </g>
   <g id="patch_44">
    <path d="M 216 72 
L 288 72 
L 288 0 
L 216 0 
z
" clip-path="url(#pf746fbb74f)" style="fill: #0000ff; stroke: #ffffff; stroke-width: 4; stroke-linejoin: miter"/>
   </g>
   <g id="patch_45">
    <path d="M 288 72 
L 360 72 
L 360 0 
L 288 0 
z
" clip-path="url(#pf746fbb74f)" style="fill: #0000ff; stroke: #ffffff; stroke-width: 4; stroke-linejoin: miter"/>
   </g>
   <g id="patch_46">
    <path d="M 360 72 
L 432 72 
L 432 0 
L 360 0 
z
" clip-path="url(#pf746fbb74f)" style="fill: #0000ff; stroke: #ffffff; stroke-width: 4; stroke-linejoin: miter"/>
   </g>
   <g id="patch_47">
    <path d="M 432 72 
L 504 72 
L 504 0 
L 432 0 
z
" clip-path="url(#pf746fbb74f)" style="fill: #0000ff; stroke: #ffffff; stroke-width: 4; stroke-linejoin: miter"/>
   </g>
   <g id="patch_48">
    <path d="M 504 72 
L 576 72 
L 576 0 
L 504 0 
z
" clip-path="url(#pf746fbb74f)" style="fill: #0000ff; stroke: #ffffff; stroke-width: 4; stroke-linejoin: miter"/>
   </g>
   <g id="patch_49">
    <path d="M 576 72 
L 648 72 
L 648 0 
L 576 0 
z
" clip-path="url(#pf746fbb74f)" style="fill: #0000ff; stroke: #ffffff; stroke-width: 4; stroke-linejoin: miter"/>
   </g>
   <g id="patch_50">
    <path d="M 648 72 
L 720 72 
L 720 0 
L 648 0 
z
" clip-path="url(#pf746fbb74f)" style="fill: #0000ff; stroke: #ffffff; stroke-width: 4; stroke-linejoin: miter"/>
   </g>
  </g>
 </g>
 <defs>
  <clipPath id="pf746fbb74f">
   <rect x="0" y="0" width="720" height="360"/>
  </clipPath>
 </defs>
</svg>
